<svg width="25" height="24" viewBox="0 0 25 24" fill="none" xmlns="http://www.w3.org/2000/svg">
<path d="M17.1472 3.56V2C17.1472 1.59 16.8072 1.25 16.3972 1.25C15.9872 1.25 15.6472 1.59 15.6472 2V3.5H9.14717V2C9.14717 1.59 8.80717 1.25 8.39717 1.25C7.98717 1.25 7.64717 1.59 7.64717 2V3.56C4.94717 3.81 3.63717 5.42 3.43717 7.81C3.41717 8.1 3.65717 8.34 3.93717 8.34H20.8572C21.1472 8.34 21.3872 8.09 21.3572 7.81C21.1572 5.42 19.8472 3.81 17.1472 3.56Z" fill="#7F7F7F"/>
<path d="M20.3972 9.83997H4.39717C3.84717 9.83997 3.39717 10.29 3.39717 10.84V17C3.39717 20 4.89717 22 8.39717 22H16.3972C19.8972 22 21.3972 20 21.3972 17V10.84C21.3972 10.29 20.9472 9.83997 20.3972 9.83997ZM9.60717 18.21C9.55717 18.25 9.50717 18.3 9.45717 18.33C9.39717 18.37 9.33717 18.4 9.27717 18.42C9.21717 18.45 9.15717 18.47 9.09717 18.48C9.02717 18.49 8.96717 18.5 8.89717 18.5C8.76717 18.5 8.63717 18.47 8.51717 18.42C8.38717 18.37 8.28717 18.3 8.18717 18.21C8.00717 18.02 7.89717 17.76 7.89717 17.5C7.89717 17.24 8.00717 16.98 8.18717 16.79C8.28717 16.7 8.38717 16.63 8.51717 16.58C8.69717 16.5 8.89717 16.48 9.09717 16.52C9.15717 16.53 9.21717 16.55 9.27717 16.58C9.33717 16.6 9.39717 16.63 9.45717 16.67C9.50717 16.71 9.55717 16.75 9.60717 16.79C9.78717 16.98 9.89717 17.24 9.89717 17.5C9.89717 17.76 9.78717 18.02 9.60717 18.21ZM9.60717 14.71C9.41717 14.89 9.15717 15 8.89717 15C8.63717 15 8.37717 14.89 8.18717 14.71C8.00717 14.52 7.89717 14.26 7.89717 14C7.89717 13.74 8.00717 13.48 8.18717 13.29C8.46717 13.01 8.90717 12.92 9.27717 13.08C9.40717 13.13 9.51717 13.2 9.60717 13.29C9.78717 13.48 9.89717 13.74 9.89717 14C9.89717 14.26 9.78717 14.52 9.60717 14.71ZM13.1072 18.21C12.9172 18.39 12.6572 18.5 12.3972 18.5C12.1372 18.5 11.8772 18.39 11.6872 18.21C11.5072 18.02 11.3972 17.76 11.3972 17.5C11.3972 17.24 11.5072 16.98 11.6872 16.79C12.0572 16.42 12.7372 16.42 13.1072 16.79C13.2872 16.98 13.3972 17.24 13.3972 17.5C13.3972 17.76 13.2872 18.02 13.1072 18.21ZM13.1072 14.71C13.0572 14.75 13.0072 14.79 12.9572 14.83C12.8972 14.87 12.8372 14.9 12.7772 14.92C12.7172 14.95 12.6572 14.97 12.5972 14.98C12.5272 14.99 12.4672 15 12.3972 15C12.1372 15 11.8772 14.89 11.6872 14.71C11.5072 14.52 11.3972 14.26 11.3972 14C11.3972 13.74 11.5072 13.48 11.6872 13.29C11.7772 13.2 11.8872 13.13 12.0172 13.08C12.3872 12.92 12.8272 13.01 13.1072 13.29C13.2872 13.48 13.3972 13.74 13.3972 14C13.3972 14.26 13.2872 14.52 13.1072 14.71ZM16.6072 18.21C16.4172 18.39 16.1572 18.5 15.8972 18.5C15.6372 18.5 15.3772 18.39 15.1872 18.21C15.0072 18.02 14.8972 17.76 14.8972 17.5C14.8972 17.24 15.0072 16.98 15.1872 16.79C15.5572 16.42 16.2372 16.42 16.6072 16.79C16.7872 16.98 16.8972 17.24 16.8972 17.5C16.8972 17.76 16.7872 18.02 16.6072 18.21ZM16.6072 14.71C16.5572 14.75 16.5072 14.79 16.4572 14.83C16.3972 14.87 16.3372 14.9 16.2772 14.92C16.2172 14.95 16.1572 14.97 16.0972 14.98C16.0272 14.99 15.9572 15 15.8972 15C15.6372 15 15.3772 14.89 15.1872 14.71C15.0072 14.52 14.8972 14.26 14.8972 14C14.8972 13.74 15.0072 13.48 15.1872 13.29C15.2872 13.2 15.3872 13.13 15.5172 13.08C15.6972 13 15.8972 12.98 16.0972 13.02C16.1572 13.03 16.2172 13.05 16.2772 13.08C16.3372 13.1 16.3972 13.13 16.4572 13.17C16.5072 13.21 16.5572 13.25 16.6072 13.29C16.7872 13.48 16.8972 13.74 16.8972 14C16.8972 14.26 16.7872 14.52 16.6072 14.71Z" fill="#7F7F7F"/>
</svg>
