<svg width="25" height="24" viewBox="0 0 25 24" fill="none" xmlns="http://www.w3.org/2000/svg">
<path d="M20.3994 10.6301L15.7294 8.62006L14.6894 8.18006C14.5294 8.10006 14.3894 7.89006 14.3894 7.71006V4.65006C14.3894 3.69006 13.6794 2.55006 12.8194 2.11006C12.5194 1.96006 12.1594 1.96006 11.8594 2.11006C11.0094 2.55006 10.2994 3.70006 10.2994 4.66006V7.72006C10.2994 7.90006 10.1594 8.11006 9.99936 8.19006L4.29936 10.6401C3.66936 10.9001 3.15936 11.6901 3.15936 12.3701V13.6901C3.15936 14.5401 3.79936 14.9601 4.58936 14.6201L9.59936 12.4601C9.98936 12.2901 10.3094 12.5001 10.3094 12.9301V14.0401V15.8401C10.3094 16.0701 10.1794 16.4001 10.0194 16.5601L7.69936 18.8901C7.45936 19.1301 7.34936 19.6001 7.45936 19.9401L7.90936 21.3001C8.08936 21.8901 8.75936 22.1701 9.30936 21.8901L11.6894 19.8901C12.0494 19.5801 12.6394 19.5801 12.9994 19.8901L15.3794 21.8901C15.9294 22.1601 16.5994 21.8901 16.7994 21.3001L17.2494 19.9401C17.3594 19.6101 17.2494 19.1301 17.0094 18.8901L14.6894 16.5601C14.5194 16.4001 14.3894 16.0701 14.3894 15.8401V12.9301C14.3894 12.5001 14.6994 12.3001 15.0994 12.4601L20.1094 14.6201C20.8994 14.9601 21.5394 14.5401 21.5394 13.6901V12.3701C21.5394 11.6901 21.0294 10.9001 20.3994 10.6301Z" fill="white"/>
</svg>
