<svg width="25" height="24" viewBox="0 0 25 24" fill="none" xmlns="http://www.w3.org/2000/svg">
<path d="M11.6693 3H5.43934C3.44934 3 2.44934 4.01 2.44934 6.02V22H7.84934V18.25C7.84934 17.84 8.18934 17.5 8.59934 17.5C9.00934 17.5 9.34934 17.83 9.34934 18.25V22H14.6493V6.02C14.6493 4.01 13.6593 3 11.6693 3ZM11.0993 12.75H6.14934C5.73934 12.75 5.39934 12.41 5.39934 12C5.39934 11.59 5.73934 11.25 6.14934 11.25H11.0993C11.5093 11.25 11.8493 11.59 11.8493 12C11.8493 12.41 11.5093 12.75 11.0993 12.75ZM11.0993 9H6.14934C5.73934 9 5.39934 8.66 5.39934 8.25C5.39934 7.84 5.73934 7.5 6.14934 7.5H11.0993C11.5093 7.5 11.8493 7.84 11.8493 8.25C11.8493 8.66 11.5093 9 11.0993 9Z" fill="#292D32"/>
<path d="M23.3494 21.25H21.0794V18.25C22.0294 17.94 22.7194 17.05 22.7194 16V14C22.7194 12.69 21.6494 11.62 20.3394 11.62C19.0294 11.62 17.9594 12.69 17.9594 14V16C17.9594 17.04 18.6394 17.92 19.5694 18.24V21.25H1.34937C0.939365 21.25 0.599365 21.59 0.599365 22C0.599365 22.41 0.939365 22.75 1.34937 22.75H20.2794C20.2994 22.75 20.3094 22.76 20.3294 22.76C20.3494 22.76 20.3594 22.75 20.3794 22.75H23.3494C23.7594 22.75 24.0994 22.41 24.0994 22C24.0994 21.59 23.7594 21.25 23.3494 21.25Z" fill="#292D32"/>
</svg>
